<svg xmlns="http://www.w3.org/2000/svg" width="128" height="128" viewBox="0 0 128 128">
  <g fill="none" fill-rule="evenodd">
    <rect width="128" height="128" fill="#007ACC"/>
    <path fill="#FFF" fill-rule="nonzero" d="M25.8125,54 C33.4375,54 39,49.7988506 39,42.8793103 C39,36.9482759 35.7889273,33.5346816 29.523102,30.5782185 L24.9375,28.4841954 C20.1875,26.3218391 18.1875,24.6537356 18.1875,20.9468391 C18.1875,17.3635057 20.75,14.954023 24.9375,14.954023 C28.9375,14.954023 31.1875,16.9310345 32.8125,19.5258621 L36.4375,17.3017241 C34.1875,13.5948276 30.625,11 24.9375,11 C18.5625,11 13.75,15.0158046 13.75,21.0704023 C13.75,26.5728269 16.661377,29.4688398 22.0206451,32.0492326 L26.5,34.1063218 C31.8125,36.454023 34.5,38.6163793 34.5,42.8793103 C34.5,47.3275862 30.625,50.045977 25.6875,50.045977 C19.6875,50.045977 16.75,47.0186782 14.75,43.4971264 L11,45.4741379 C13.25,49.9224138 17.6875,54 25.8125,54 Z M47,54 L47,13 L70,13 L70,16.8588235 L51.0488998,16.8588235 L51.0488998,36.0926471 L68.2567237,36.0926471 L68.2567237,40.0720588 L51.0488998,40.0720588 L51.0488998,54 L47,54 Z"/>
    <path fill="#FFF" fill-rule="nonzero" d="M84.5202864,40 C89.5513126,40 93,37.222061 93,31.1190131 L93,11 L87.3198091,11 L87.3198091,31.0348331 C87.3198091,33.9811321 86.1431981,34.7387518 84.2768496,34.7387518 C82.3293556,34.7387518 81.5178998,33.3497823 80.6252983,31.7082729 L76,34.6124819 C77.3389021,37.5587808 79.9761337,40 84.5202864,40 Z M106.995893,40 C101.390144,40 97.7679671,37.420373 96,34.0502152 L100.915811,31.3041607 C102.209446,33.3428981 103.89117,34.8407461 106.86653,34.8407461 C109.367556,34.8407461 110.963039,33.6341463 110.963039,31.9698709 C110.963039,29.9727403 109.324435,29.2654232 106.564682,28.1004304 L105.055441,27.4763271 C100.700205,25.687231 97.8110883,23.4404591 97.8110883,18.697274 C97.8110883,14.3285509 101.26078,11 106.650924,11 C110.488706,11 113.24846,12.2898135 115.232033,15.6599713 L110.531828,18.5724534 C109.49692,16.7833572 108.37577,16.0760402 106.650924,16.0760402 C104.882957,16.0760402 103.761807,17.1578192 103.761807,18.5724534 C103.761807,20.3199426 104.882957,21.0272597 107.470226,22.1090387 L108.979466,22.733142 C114.110883,24.8550933 117,27.0186514 117,31.8866571 C117,37.1291248 112.731006,40 106.995893,40 Z" opacity=".651"/>
  </g>
</svg>
